<?xml version="1.0" standalone="no"?><!DOCTYPE svg PUBLIC "-//W3C//DTD SVG 1.1//EN" "http://www.w3.org/Graphics/SVG/1.1/DTD/svg11.dtd"><svg t="1598957501315" class="icon" viewBox="0 0 1024 1024" version="1.1" xmlns="http://www.w3.org/2000/svg" p-id="12023" xmlns:xlink="http://www.w3.org/1999/xlink" width="200" height="200"><defs><style type="text/css"></style></defs><path d="M940.9 236H282.8c-8 0-14.8-5.6-16.3-13.4l-12.8-64.9c-3.3-16.7-18-28.8-35-28.8h-119C80 129 64 144.9 64 164.7c0 19.7 16 35.7 35.7 35.7h89.6s0.1 0 0.1 0.1l94.2 477.9c3.3 16.7 18 28.8 35 28.8h476.2c19.5 0 36-15.3 36.5-34.7 0.5-20.1-15.7-36.6-35.7-36.6h-434c-8 0-14.8-5.6-16.3-13.4l-10.1-51.2c-2-10.3 5.8-19.9 16.3-19.9h478.1c6.8 0 12.9-4.1 15.4-10.4l113.6-278.6c5.1-12.7-4.1-26.4-17.7-26.4z" p-id="12024" fill="#8a8a8a"></path><path d="M375.1 815.9m-79.1 0a79.1 79.1 0 1 0 158.2 0 79.1 79.1 0 1 0-158.2 0Z" p-id="12025" fill="#8a8a8a"></path><path d="M730.8 815.9m-79.1 0a79.1 79.1 0 1 0 158.2 0 79.1 79.1 0 1 0-158.2 0Z" p-id="12026" fill="#8a8a8a"></path></svg>